The Sixth Sense [1999] 720P BRRip[Dual-Audio][Eng-Hindi]


Poster 
http://img820.imageshack.us/img820/9356/inam.jpg







General 



Complete name : The Sixth Sense [1999] 720P BRRip[Dual-Audio][Eng-Hindi]INAM
 Format : Matroska
 Format version : Version 2
 File size : 1.95 GiB
 Duration : 1h 47mn
 Overall bit rate : 2 604 Kbps
 Encoded date : UTC 2010-03-31 19:36:06
 Writing library : libebml v0.8.0 + libmatroska v0.9.0 



Video 


ID : 1
 Format : AVC
 Format/Info : Advanced Video Codec
 Format profile : High@L4.1
 Format settings, CABAC : Yes
 Format settings, ReFrames : 4 frames
 Codec ID : V_MPEG4/ISO/AVC
 Duration : 1h 47mn
 Bit rate : 2 282 Kbps
 Width : 1 280 pixels
 Height : 694 pixels
 Display aspect ratio : 16:9
 Frame rate : 23.976 fps
 Color space : YUV
 Chroma subsampling : 4:2:0
 Bit depth : 8 bits
 Scan type : Progressive
 Bits/(Pixel*Frame) : 0.107
 Stream size : 1.67 GiB (86%)
 Title : The Sixth Sense
 Writing library : x264 core 67 r1165M 6841c5e
 Encoding settings : cabac=1 / ref=4 / deblock=1:-
 Language : English
 Default : Yes
 Forced : No 



Audio #1 


ID : 3
 Format : MPEG Audio
 Format version : Version 1
 Format profile : Layer 3
 Mode : Joint stereo
 Mode extension : MS Stereo
 Codec ID : A_MPEG/L3
 Codec ID/Hint : MP3
 Duration : 1h 47mn
 Bit rate mode : Constant
 Bit rate : 160 Kbps
 Channel(s) : 2 channels
 Sampling rate : 48.0 KHz
 Compression mode : Lossy
 Stream size : 123 MiB (6%)
 Title : The Sixth Sense - English
 Language : English
 Default : Yes
 Forced : No 


Audio #2 


ID : 4
 Format : MPEG Audio
 Format version : Version 1
 Format profile : Layer 3
 Mode : Joint stereo
 Codec ID : A_MPEG/L3
 Codec ID/Hint : MP3
 Duration : 1h 47mn
 Bit rate mode : Constant
 Bit rate : 160 Kbps
 Channel(s) : 2 channels
 Sampling rate : 48.0 KHz
 Compression mode : Lossy
 Stream size : 123 MiB (6%)
 Title : The Sixth Sense - Hindi
 Language : Hindi
 Default : No
 Forced : No


Text 


ID : 2
 Format : SSA
 Codec ID : S_TEXT/SSA
 Codec ID/Info : Sub Station Alpha
 Compression mode : Lossless
 Title : The Sixth Sense - English
 Language : English
 Default : No
 Forced : No





Screenshots:
 
http://img845.imageshack.us/img845/6205/vlcsnap2011112710h43m59.png
 
http://img823.imageshack.us/img823/7481/vlcsnap2011112710h41m02.png

 
http://img408.imageshack.us/img408/1503/vlcsnap2011112710h38m54.png
 
http://img690.imageshack.us/img690/8485/vlcsnap2011112710h39m44.png

 
http://img838.imageshack.us/img838/8008/vlcsnap2011112710h44m21.png





PLEASE SEED AS LONG AS YOU CAN!!!
THANK YOU!!!
AND DO DROP A COMMENT ABOUT THE MOVIE and its QUALITY








